# xmcd CD database file
#
# Track frame offsets:
#	150
#	41325
#	75957
#	88429
#	120212
#	162299
#	214595
#
# Disc length: 3539 seconds
#
# Revision: 0
# Processed by: cddbd v1.5.2PL0 Copyright (c) Steve Scherf et al.
# Submitted via: CDex 1.70beta2
#
DISCID=490dd107
DTITLE=Jon Irabagon - Absolute Zero
DYEAR=2009
DGENRE=Jazz
TTITLE0=States of Matter
TTITLE1=Nov
TTITLE2=Parallax
TTITLE3=Cosmic Distance
TTITLE4=Crust
TTITLE5=Degrees of Freedom
TTITLE6=Spacetime
EXTD=YEAR: 2009
EXTT0=
EXTT1=
EXTT2=
EXTT3=
EXTT4=
EXTT5=
EXTT6=
PLAYORDER=
